<?xml version="1.0" encoding="UTF-8"?>
<svg width="699px" height="103px" viewBox="0 0 699 103" version="1.1" xmlns="http://www.w3.org/2000/svg" xmlns:xlink="http://www.w3.org/1999/xlink">
    <!-- Generator: Sketch 44.1 (41455) - http://www.bohemiancoding.com/sketch -->
    <title>Logo</title>
    <desc>Created with Sketch.</desc>
    <defs></defs>
    <g id="Desktop" stroke="none" stroke-width="1" fill="none" fill-rule="evenodd">
        <g id="Home-Landing" transform="translate(-40.000000, -76.000000)" fill-rule="nonzero" fill="#FFFFFF">
            <g id="Logo" transform="translate(40.000000, 76.000000)">
                <path d="M221,101.886032 L197.639683,101.886032 L193.616623,83.9740982 L169.364401,83.9740982 L165.17055,102 L142,102 L164.240692,3 L198.721355,3 L221,101.886032 Z M181.471535,19.9052187 L174.222436,62.5481581 L188.986308,62.5481581 L181.471535,19.9052187 Z" id="Shape"></path>
                <path d="M67.6529726,36.1790535 L46.4457889,36.1790535 C46.1411974,34.9448394 45.8175689,33.9384802 45.6462362,32.913133 C44.2946113,24.6344044 39.0975187,20.9507499 31.0448807,22.602698 C24.4580894,23.9698275 22.0784682,30.596608 26.9138584,35.2676339 C29.8543896,37.7972892 33.1511771,39.8828593 36.6988606,41.4576925 C41.8959532,44.0970119 47.4547482,46.0717545 52.556656,48.8629773 C66.0919411,56.2682621 71.0225162,66.4647697 68.2621556,80.4588592 C65.8444605,92.7820127 55.5835341,101.80127 41.420029,102.788641 C34.547407,103.362617 27.6269721,102.765462 20.955287,101.022766 C6.23970979,96.8644133 -1.37507791,84.0095984 0.204990538,68.1167178 L21.4692852,68.1167178 C21.583507,69.3699199 21.6596549,70.5281824 21.8500246,71.9142998 C23.1635755,80.933557 30.7402892,84.8070906 38.9832969,82.5475293 C41.6815267,81.4781594 43.8860908,79.4484214 45.1703119,76.8511564 C46.6739079,73.7409206 45.4576726,70.001223 42.4099514,68.3635607 C38.8943263,66.2785209 35.2724155,64.3771646 31.5588789,62.6671877 C25.3909009,59.5721584 18.7279616,57.2176576 13.1120557,53.3251361 C4.86837809,47.766428 0.316182814,38.1691976 1.23566126,28.2865586 C2.15513971,18.4039196 8.40019898,9.80609224 17.5286326,5.85536155 C29.0980168,0.344634522 42.6264189,0.762106352 53.8321329,6.97564823 C64.4061135,12.5912988 70.0265879,24.4673494 67.6529726,36.1790535 L67.6529726,36.1790535 Z" id="Shape"></path>
                <polygon id="Shape" points="326.665313 81.8540987 360 81.8540987 360 102 304 102 304 3 359.962098 3 359.962098 22.7277788 326.60846 22.7277788 326.60846 41.7333461 350.751946 41.7333461 350.751946 62.2593588 326.684264 62.2593588"></polygon>
                <polygon id="Shape" points="268.396226 102 246 102 246 22.997317 225 22.997317 225 3 289 3 289 22.8075891 268.396226 22.8075891"></polygon>
                <polygon id="Shape" points="143 22.7619597 122.214644 22.7619597 122.214644 102 99.7853558 102 99.7853558 22.914121 79 22.914121 79 3 143 3"></polygon>
                <path d="M409,102.243921 L409,3.05079013 C411.543122,3.05079013 434.958681,2.93651233 444.377651,3.05079013 C448.224995,3.08684838 452.057808,3.53374196 455.812281,4.38403114 C463.884375,6.3064356 470.533963,12.0657692 473.651946,19.8353024 C476.769929,27.6048357 475.969406,36.4204693 471.504285,43.4860851 C469.620491,46.4382616 466.418041,48.495262 463.648864,51.1046051 C463.648864,50.8950958 463.648864,51.5236237 463.893757,51.5998089 C474.103921,54.6472169 477.739643,62.0943202 477.984536,72.2459982 C478.248267,83.6737782 475.196521,93.4635764 464.364706,98.7013089 C459.758829,100.986021 454.753336,102.332131 449.633437,102.662939 C436.804799,103.234328 423.957324,102.910541 411.109849,102.891495 C410.381632,102.76964 409.672324,102.551932 409,102.243921 Z M431.473662,83.0452503 C437.286433,82.9879761 443.091412,82.6000884 448.861081,81.883426 C454.135704,80.9501573 456.00066,77.2742214 455.642739,71.1413127 C455.322494,65.7512098 453.401025,63.1037741 448.013374,62.589524 C442.625723,62.0752739 437.125044,62.4752462 431.473662,62.4752462 L431.473662,83.0452503 Z M431.473662,41.9242885 C436.162742,42.1406888 440.859809,42.1089015 445.545604,41.829057 C450.405792,41.2767143 452.572155,38.1721674 452.79821,32.7820645 C453.024266,27.3919616 450.914416,24.1921832 445.9412,23.544609 C441.120143,23.1883126 436.281498,23.1437805 431.454824,23.4112849 L431.473662,41.9242885 Z" id="Shape"></path>
                <path d="M632,102.983084 L632,3.33762034 C645.418768,3.33762034 658.462185,2.44317099 671.411765,3.56599038 C688.752941,5.06942652 698.887395,17.3633473 699,34.92881 L699,69.9265196 C699,88.4435241 689.747619,99.5194713 671.862185,102.488282 C669.120253,102.87126 666.35303,103.036696 663.585714,102.983084 C653.113445,103.021145 642.716246,102.983084 632,102.983084 Z M654.389636,23.5864311 L654.389636,82.1633478 C656.585434,82.3155945 658.443417,82.5439646 660.301401,82.5439646 C662.850982,82.6350891 665.403726,82.5396876 667.939776,82.258502 C673.570028,81.440176 676.441457,78.4523346 676.535294,72.7430835 C676.760504,59.5864314 676.760504,46.4297793 676.535294,33.2731272 C676.422689,27.2403518 673.457423,24.1954179 667.451821,23.6054619 C663.304202,23.2629068 659.043978,23.5864311 654.389636,23.5864311 L654.389636,23.5864311 Z" id="Shape"></path>
                <path d="M594.835192,65.2695305 L613,103 L587.741909,103 L573.461518,70.8768295 L565.955398,70.8768295 L565.955398,102.866945 L544,102.866945 L544,3 C558.636932,3.58924159 573.123742,3.34214028 587.404134,4.90077932 C599.47022,6.28834822 606.863748,14.5187227 608.533859,26.7977571 C609.301057,33.2243278 609.301057,39.7211199 608.533859,46.1476906 C607.61436,54.6441741 603.091923,61.087816 594.835192,65.2695305 Z M565.842807,48.7327504 C573.029916,51.4698726 581.999728,50.3294051 585.002176,46.3947919 C588.004623,42.4601787 587.873266,30.6753469 585.096002,27.1018818 C582.318738,23.5284167 573.01115,22.3309257 565.842807,24.9349933 L565.842807,48.7327504 Z" id="Shape"></path>
                <polygon id="Shape" points="498 33 498 103 520 103 520 33"></polygon>
                <circle id="Oval" cx="508.5" cy="12.5" r="12.5"></circle>
            </g>
        </g>
    </g>
</svg>